<svg width="72" height="71" viewBox="0 0 72 71" fill="none" xmlns="http://www.w3.org/2000/svg">
   <g opacity="0.9">
      <path
         d="M66.817 39.109C66.7062 38.9861 65.7185 38.1532 64.6155 37.2475C63.5078 36.3418 61.9293 34.9901 61.0893 34.23C58.8001 32.1546 57.1893 30.7665 56.9447 30.6573C56.7878 30.5844 56.6216 30.6391 56.2985 30.8621C55.8508 31.1716 55.837 31.2125 55.6662 32.3913C55.5785 32.9875 55.6755 32.9648 54.1108 32.76C52.6247 32.5643 52.2508 32.719 52.4955 33.429C52.5508 33.5928 52.5831 33.8159 52.5647 33.9023C52.5416 33.9934 52.4862 34.2255 52.4401 34.4257C52.3939 34.626 52.2878 34.8399 52.2001 34.9127C51.8124 35.2268 52.2093 36.0005 52.8693 36.2144C53.0816 36.2827 53.3078 36.4055 53.3816 36.492C53.4555 36.5739 53.7785 36.7287 54.0924 36.8288C54.4062 36.9289 54.7016 37.0427 54.7385 37.0837C54.7801 37.1246 54.7155 37.5752 54.6001 38.0941C54.4616 38.713 54.4108 39.2091 54.457 39.5596C54.5816 40.4926 54.3324 40.4562 60.1755 40.3697C62.9816 40.3287 65.5755 40.2514 65.9308 40.1968C66.9093 40.0329 67.2647 39.6051 66.817 39.109ZM59.9816 38.1851C58.6524 37.9621 57.5585 37.6662 58.0155 37.6526C58.717 37.6298 61.5278 38.2352 61.3801 38.3808C61.3616 38.399 60.7293 38.3125 59.9816 38.1851ZM60.5631 37.1519C59.8385 36.8243 58.2508 35.8776 58.3155 35.8139C58.4262 35.7046 59.2108 36.0687 60.2031 36.6923C60.7939 37.0655 61.2601 37.3841 61.2416 37.4068C61.2278 37.4296 60.9231 37.3112 60.5631 37.1519ZM59.1462 34.1162C59.1185 34.1162 59.0355 34.0343 58.9524 33.9251C58.8185 33.7521 58.8231 33.7476 59.0031 33.8887C59.1878 34.0298 59.2431 34.1162 59.1462 34.1162ZM57.8816 36.9062L57.1893 36.8425L57.2585 36.5011C57.2955 36.3145 57.3416 36.1416 57.3601 36.1188C57.3785 36.096 57.6693 36.269 58.0016 36.5057C58.3385 36.7378 58.6016 36.938 58.5924 36.9517C58.5831 36.9608 58.2601 36.9426 57.8816 36.9062ZM56.8616 33.1241C56.8108 32.8055 56.9078 32.7281 57.1339 32.9102C57.3001 33.0467 57.2955 33.0694 57.1062 33.206C56.917 33.3425 56.8939 33.3334 56.8616 33.1241ZM55.9201 39.2956C55.6385 39.2956 55.6201 39.2683 55.6847 38.9998C55.7816 38.6038 55.7816 38.6038 56.0262 38.6812C56.1462 38.7221 56.2293 38.8541 56.2293 39.0225C56.2293 39.2501 56.1785 39.2956 55.9201 39.2956Z"
         fill="#777E91" />
      <path
         d="M48.7755 31.6722C48.6139 31.4583 45.8909 31.0442 42.8632 30.7756C40.897 30.5981 40.5555 30.6254 40.3939 30.9804C40.2185 31.3536 40.417 31.5994 41.0539 31.8224L41.5893 32.0045L41.1924 32.0181C40.9708 32.0227 40.7355 32.0864 40.6616 32.1592C40.4724 32.3458 40.5047 32.8601 40.717 33.0376C40.8785 33.1696 40.8509 33.1924 40.4724 33.2379C39.9693 33.3016 39.7339 33.5747 39.9185 33.866C40.0616 34.089 39.9785 34.0799 44.5155 34.5122C47.4785 34.7944 47.6862 34.8035 47.9585 34.626C48.2816 34.4167 48.3139 34.1618 48.0508 33.8796C47.8801 33.6976 47.8847 33.6794 48.1062 33.6794C48.2447 33.6794 48.4247 33.5565 48.5355 33.3926C48.7062 33.1332 48.7108 33.0786 48.5539 32.801C48.3924 32.5142 48.3924 32.4915 48.6139 32.3959C48.8955 32.2776 48.9739 31.9271 48.7755 31.6722Z"
         fill="#777E91" />
      <path
         d="M36.2263 30.9259C36.134 30.8485 35.5432 30.7484 34.9063 30.6983C33.3186 30.5663 29.4325 30.5709 29.0863 30.7029C28.7309 30.8394 28.6063 31.1034 28.7771 31.3764C28.9571 31.6632 28.9432 31.695 28.6294 31.695C28.3617 31.695 27.9048 32.0364 27.9048 32.2366C27.9048 32.405 28.4725 32.7964 28.7217 32.7964C28.934 32.7964 28.934 32.8056 28.7586 33.0013C28.6571 33.1105 28.574 33.2607 28.574 33.3198C28.574 33.3836 28.4956 33.4655 28.4079 33.4973C28.3202 33.5292 28.2417 33.6566 28.2417 33.7659C28.2417 34.13 28.5002 34.2438 29.1463 34.1664C29.4786 34.1254 31.0017 34.0617 32.534 34.0253C34.994 33.9616 35.3309 33.9343 35.4371 33.7659C35.6632 33.4109 35.3632 33.3062 33.8632 33.2334C33.0786 33.197 32.6863 33.1514 32.9909 33.1378C34.0617 33.0877 34.4356 32.9785 34.4817 32.7009C34.5048 32.5461 34.4448 32.3914 34.3202 32.3049C34.1448 32.182 34.2463 32.1547 35.0402 32.1229C35.8663 32.0864 35.9863 32.0546 36.1802 31.8088C36.434 31.472 36.4571 31.1079 36.2263 30.9259Z"
         fill="#777E91" />
      <path
         d="M23.2753 31.7861C22.8369 31.5904 17.1969 32.2685 16.583 32.5916C16.463 32.6554 16.3938 32.8192 16.3938 33.0286C16.3938 33.3016 16.4538 33.3836 16.7169 33.4837C17.063 33.6111 17.2476 34.1072 17.0307 34.3257C16.9661 34.3848 16.9246 34.5851 16.9292 34.7717C16.9338 34.9583 16.8969 35.1085 16.8415 35.1085C16.6384 35.1085 16.4907 35.5363 16.6153 35.7684C16.7584 36.0324 17.0861 36.0506 17.7461 35.8185C18.6969 35.4863 20.0353 35.2086 21.4569 35.063C22.2415 34.9811 22.9523 34.8536 23.0446 34.7763C23.2846 34.5806 23.2107 34.0845 22.92 33.957C22.5876 33.8114 22.643 33.247 23.0215 32.8784C23.2015 32.7054 23.2938 32.5143 23.2569 32.4141C23.22 32.314 23.2384 32.2457 23.303 32.2457C23.5476 32.2457 23.5292 31.9044 23.2753 31.7861Z"
         fill="#777E91" />
      <path
         d="M11.3677 34.9766L11.1693 34.7354L10.177 35.0312C9.62774 35.195 9.04159 35.327 8.87082 35.327C8.35851 35.327 5.40005 36.2009 5.24774 36.3966C5.16928 36.4967 5.13236 36.6742 5.16467 36.7698C5.19697 36.8699 5.16928 36.9928 5.10928 37.0292C5.04467 37.0702 4.9939 37.2431 4.9939 37.4206C4.9939 37.6618 5.07236 37.7802 5.31697 37.9076C5.73236 38.1215 5.84313 38.5129 5.55236 38.7177C5.27082 38.9089 5.2662 39.2093 5.54313 39.455C5.7462 39.6371 5.82928 39.6189 7.41697 39.0454C8.33543 38.7132 9.47544 38.3309 9.96928 38.1898C11.1093 37.8621 11.1831 37.8029 11.0954 37.2886C11.0585 37.0565 11.077 36.8517 11.1416 36.8153C11.3354 36.7015 11.2662 36.433 10.9754 36.169L10.7077 35.9232L11.0862 35.7867C11.5293 35.632 11.64 35.3088 11.3677 34.9766Z"
         fill="#777E91" />
   </g>
</svg>
