<svg width="40" height="40" viewBox="0 0 40 40" fill="none" xmlns="http://www.w3.org/2000/svg">
   <path fill-rule="evenodd" clip-rule="evenodd"
      d="M16.6215 0.85942C18.7281 -0.286473 21.2719 -0.286474 23.3786 0.85942L35.5914 7.50256C37.8669 8.74033 39.2834 11.1233 39.2834 13.7137V26.2863C39.2834 28.8767 37.8669 31.2597 35.5914 32.4974L23.3786 39.1406C21.2719 40.2865 18.7281 40.2865 16.6215 39.1406L4.40866 32.4974C2.13314 31.2597 0.716629 28.8767 0.716629 26.2863L0.716629 13.7137C0.716629 11.1233 2.13313 8.74033 4.40866 7.50256L16.6215 0.85942Z"
      fill="#2E3148" />
   <g clip-path="url(#clip0_6_78)">
      <path
         d="M20 37C29.3888 37 37 29.3888 37 20C37 10.6112 29.3888 3 20 3C10.6112 3 3 10.6112 3 20C3 29.3888 10.6112 37 20 37Z"
         fill="#2E3148" />
      <path
         d="M20.3666 9.375C18.9906 9.375 17.875 14.3656 17.875 20.5206C17.875 26.6757 18.9906 31.6662 20.3666 31.6662C21.7414 31.6662 22.8571 26.6757 22.8571 20.5206C22.8571 14.3656 21.7414 9.375 20.3666 9.375ZM20.5387 31.0362C20.3814 31.2466 20.2231 31.0893 20.2231 31.0893C19.5899 30.3541 19.2732 28.9909 19.2732 28.9909C18.1651 25.4241 18.4286 17.7666 18.4286 17.7666C18.9492 11.6881 19.8969 10.2516 20.2189 9.93281C20.2518 9.90012 20.2953 9.88016 20.3416 9.87647C20.3879 9.87277 20.434 9.88558 20.4718 9.91263C20.9393 10.2452 21.3324 11.6307 21.3324 11.6307C22.4905 15.9317 22.3853 19.9692 22.3853 19.9692C22.4905 23.4839 21.8052 27.4173 21.8052 27.4173C21.2771 30.4072 20.5387 31.0362 20.5387 31.0362Z"
         fill="white" />
      <path
         d="M29.8518 15.0956C29.1665 13.9013 24.2843 15.4175 18.9431 18.4807C13.6019 21.5439 9.83431 24.9938 10.5175 26.1881C11.2028 27.3823 16.0861 25.8661 21.4273 22.8029C26.7684 19.7398 30.5371 16.2888 29.8529 15.0956H29.8518ZM11.1486 26.0234C10.8873 25.9915 10.9468 25.7748 10.9468 25.7748C11.2676 24.861 12.2919 23.9069 12.2919 23.9069C14.8344 21.1709 21.6089 17.5893 21.6089 17.5893C27.1403 15.0159 28.8584 15.1243 29.294 15.2433C29.339 15.2556 29.3781 15.2835 29.4044 15.3221C29.4307 15.3606 29.4424 15.4072 29.4374 15.4536C29.3843 16.0242 28.3749 17.0548 28.3749 17.0548C25.2236 20.2009 21.6684 22.1208 21.6684 22.1208C18.6722 23.9611 14.9184 25.3221 14.9184 25.3221C12.0624 26.3506 11.1486 26.0234 11.1486 26.0234V26.0234Z"
         fill="white" />
      <path
         d="M29.8047 26.2628C30.4954 25.0728 26.7373 21.6059 21.4131 18.5193C16.09 15.4338 11.2089 13.8996 10.5193 15.0917C9.82867 16.2849 13.5878 19.7486 18.913 22.8352C24.2394 25.9207 29.1152 27.4549 29.8047 26.2628ZM10.9772 15.5518C10.8742 15.3095 11.0899 15.2511 11.0899 15.2511C12.0429 15.0704 13.3817 15.4816 13.3817 15.4816C17.0229 16.3104 23.5158 20.3776 23.5158 20.3776C28.5149 23.8754 29.282 25.4171 29.3967 25.8538C29.4083 25.8986 29.4037 25.9461 29.3837 25.9879C29.3637 26.0297 29.3295 26.0631 29.2873 26.0822C28.7667 26.3213 27.3695 25.9653 27.3695 25.9653C23.0664 24.8114 19.6249 22.6981 19.6249 22.6981C16.533 21.03 13.4752 18.4641 13.4752 18.4641C11.1515 16.5069 10.9783 15.5528 10.9783 15.5528L10.9762 15.5518H10.9772Z"
         fill="white" />
      <path
         d="M20.2486 21.5598C20.9727 21.5598 21.5598 20.9727 21.5598 20.2486C21.5598 19.5245 20.9727 18.9375 20.2486 18.9375C19.5245 18.9375 18.9375 19.5245 18.9375 20.2486C18.9375 20.9727 19.5245 21.5598 20.2486 21.5598Z"
         fill="white" />
      <path
         d="M25.3125 16.8125C25.8993 16.8125 26.375 16.3368 26.375 15.75C26.375 15.1632 25.8993 14.6875 25.3125 14.6875C24.7257 14.6875 24.25 15.1632 24.25 15.75C24.25 16.3368 24.7257 16.8125 25.3125 16.8125Z"
         fill="white" />
      <path
         d="M12.5625 18.9375C13.1493 18.9375 13.625 18.4618 13.625 17.875C13.625 17.2882 13.1493 16.8125 12.5625 16.8125C11.9757 16.8125 11.5 17.2882 11.5 17.875C11.5 18.4618 11.9757 18.9375 12.5625 18.9375Z"
         fill="white" />
      <path
         d="M18.9375 28.5C19.5243 28.5 20 28.0243 20 27.4375C20 26.8507 19.5243 26.375 18.9375 26.375C18.3507 26.375 17.875 26.8507 17.875 27.4375C17.875 28.0243 18.3507 28.5 18.9375 28.5Z"
         fill="white" />
   </g>
   <defs>
      <clipPath id="clip0_6_78">
         <rect width="34" height="34" fill="white" transform="translate(3 3)" />
      </clipPath>
   </defs>
</svg>
