<svg width="40" height="40" viewBox="0 0 40 40" fill="none" xmlns="http://www.w3.org/2000/svg">
   <g clip-path="url(#clip0_207_16)">
      <path fill-rule="evenodd" clip-rule="evenodd"
         d="M16.6214 0.85942C18.728 -0.286473 21.2719 -0.286474 23.3785 0.85942L35.5913 7.50256C37.8668 8.74033 39.2833 11.1233 39.2833 13.7137V26.2863C39.2833 28.8767 37.8668 31.2597 35.5913 32.4974L23.3785 39.1406C21.2719 40.2865 18.728 40.2865 16.6214 39.1406L4.40858 32.4974C2.13306 31.2597 0.716553 28.8767 0.716553 26.2863V13.7137C0.716553 11.1233 2.13306 8.74033 4.40858 7.50256L16.6214 0.85942Z"
         fill="#F3BA2F" />
      <g clip-path="url(#clip1_207_16)">
         <path
            d="M20 36C28.8366 36 36 28.8366 36 20C36 11.1634 28.8366 4 20 4C11.1634 4 4 11.1634 4 20C4 28.8366 11.1634 36 20 36Z"
            fill="#F3BA2F" />
         <path
            d="M16.116 18.404L20 14.52L23.886 18.406L26.146 16.146L20 10L13.856 16.144L16.116 18.404ZM10 20L12.26 17.74L14.52 20L12.26 22.26L10 20ZM16.116 21.596L20 25.48L23.886 21.594L26.146 23.853L20 30L13.856 23.856L13.853 23.853L16.116 21.596ZM25.48 20L27.74 17.74L30 20L27.74 22.26L25.48 20ZM22.292 19.998H22.294V20L20 22.294L17.709 20.004L17.705 20L17.709 19.997L18.11 19.595L18.305 19.4L20 17.706L22.293 19.999L22.292 19.998Z"
            fill="white" />
      </g>
   </g>
   <defs>
      <clipPath id="clip0_207_16">
         <rect width="40" height="40" fill="white" />
      </clipPath>
      <clipPath id="clip1_207_16">
         <rect width="32" height="32" fill="white" transform="translate(4 4)" />
      </clipPath>
   </defs>
</svg>
