<svg width="40" height="40" viewBox="0 0 40 40" fill="none" xmlns="http://www.w3.org/2000/svg">
   <path fill-rule="evenodd" clip-rule="evenodd"
      d="M16.6215 0.85942C18.7281 -0.286473 21.2719 -0.286474 23.3786 0.85942L35.5914 7.50256C37.8669 8.74033 39.2834 11.1233 39.2834 13.7137V26.2863C39.2834 28.8767 37.8669 31.2597 35.5914 32.4974L23.3786 39.1406C21.2719 40.2865 18.7281 40.2865 16.6215 39.1406L4.40866 32.4974C2.13314 31.2597 0.716629 28.8767 0.716629 26.2863L0.716629 13.7137C0.716629 11.1233 2.13313 8.74033 4.40866 7.50256L16.6215 0.85942Z"
      fill="#2E3148" />
   <g clip-path="url(#clip0_115_83)">
      <path d="M19.9996 5.06313L23.7004 8.8418L14.3814 18.1329L10.6806 14.4431L19.9996 5.06313Z" fill="#F0B90B"
         stroke="#F0B90B" />
      <path d="M25.6177 10.6645L29.3185 14.4431L14.3814 29.3355L10.6806 25.6458L25.6177 10.6645Z" fill="#F0B90B"
         stroke="#F0B90B" />
      <path d="M8.76326 16.2658L12.4641 20.0445L8.76326 23.7342L5.06242 20.0445L8.76326 16.2658Z" fill="#F0B90B"
         stroke="#F0B90B" />
      <path d="M31.2358 16.2658L34.9367 20.0445L19.9996 34.9369L16.2987 31.2471L31.2358 16.2658Z" fill="#F0B90B"
         stroke="#F0B90B" />
   </g>
   <defs>
      <clipPath id="clip0_115_83">
         <rect width="30" height="30" fill="white" transform="translate(5 5)" />
      </clipPath>
   </defs>
</svg>
