<svg width="40" height="40" viewBox="0 0 40 40" fill="none" xmlns="http://www.w3.org/2000/svg">
   <path fill-rule="evenodd" clip-rule="evenodd"
      d="M16.6215 0.85942C18.7281 -0.286473 21.2719 -0.286474 23.3785 0.85942L35.5914 7.50256C37.8669 8.74033 39.2834 11.1233 39.2834 13.7137V26.2863C39.2834 28.8767 37.8669 31.2597 35.5914 32.4974L23.3785 39.1406C21.2719 40.2865 18.7281 40.2865 16.6215 39.1406L4.40864 32.4974C2.13312 31.2597 0.716614 28.8767 0.716614 26.2863L0.716614 13.7137C0.716614 11.1233 2.13312 8.74033 4.40864 7.50256L16.6215 0.85942Z"
      fill="#328332" />
   <g clip-path="url(#clip0_6_78)">
      <path
         d="M20 36C28.8366 36 36 28.8366 36 20C36 11.1634 28.8366 4 20 4C11.1634 4 4 11.1634 4 20C4 28.8366 11.1634 36 20 36Z"
         fill="#328332" />
      <path
         d="M19.989 20.553L13.268 19.976L19.988 16.174V20.553H19.989ZM19.989 25.013V31.953C17.652 28.315 15.076 24.311 13 21.07C15.45 22.45 18.008 23.893 19.989 25.014V25.013ZM19.989 14.945L13 18.845L19.989 8V14.945V14.945Z"
         fill="white" />
      <path
         d="M26.721 19.976L20 20.553V16.174L26.72 19.976H26.721ZM20 25.014C21.98 23.894 24.537 22.45 26.988 21.07C24.912 24.312 22.336 28.316 20 31.952V25.014V25.014ZM20 14.945V8L26.988 18.845L20 14.945V14.945Z"
         fill="white" fill-opacity="0.601" />
      <path opacity="0.2" fill-rule="evenodd" clip-rule="evenodd" d="M20 20.577L26.72 20L20 23.775V20.577Z"
         fill="white" />
      <path opacity="0.603" fill-rule="evenodd" clip-rule="evenodd" d="M19.721 20.577L13 20L19.721 23.775V20.577Z"
         fill="white" />
   </g>
   <defs>
      <clipPath id="clip0_6_78">
         <rect width="32" height="32" fill="white" transform="translate(4 4)" />
      </clipPath>
   </defs>
</svg>
