<svg width="39" height="40" viewBox="0 0 39 40" fill="none" xmlns="http://www.w3.org/2000/svg">
   <path fill-rule="evenodd" clip-rule="evenodd"
      d="M15.9048 0.859421C18.0115 -0.286473 20.5553 -0.286474 22.6619 0.85942L34.8747 7.50256C37.1503 8.74033 38.5668 11.1233 38.5668 13.7137V26.2863C38.5668 28.8767 37.1503 31.2597 34.8747 32.4974L22.6619 39.1406C20.5553 40.2865 18.0115 40.2865 15.9048 39.1406L3.69203 32.4974C1.41651 31.2597 0 28.8767 0 26.2863L0 13.7137C0 11.1233 1.4165 8.74033 3.69203 7.50256L15.9048 0.859421Z"
      fill="#C04237" />
   <path
      d="M7.2642 27V12.4545H13.0028C14.1013 12.4545 15.0388 12.651 15.8153 13.044C16.5966 13.4323 17.1908 13.9839 17.598 14.6989C18.0099 15.4091 18.2159 16.2448 18.2159 17.206C18.2159 18.1719 18.0076 19.0028 17.5909 19.6989C17.1742 20.3902 16.5705 20.9205 15.7798 21.2898C14.9938 21.6591 14.0421 21.8438 12.9247 21.8438H9.08239V19.3722H12.4276C13.0147 19.3722 13.5024 19.2917 13.8906 19.1307C14.2789 18.9697 14.5677 18.7282 14.7571 18.4062C14.9512 18.0843 15.0483 17.6842 15.0483 17.206C15.0483 16.723 14.9512 16.3158 14.7571 15.9844C14.5677 15.6529 14.2765 15.402 13.8835 15.2315C13.4953 15.0563 13.0052 14.9688 12.4134 14.9688H10.3395V27H7.2642ZM15.1193 20.3807L18.7344 27H15.3395L11.8026 20.3807H15.1193ZM20.3324 31.0909V16.0909H23.3153V17.9233H23.4503C23.5829 17.6297 23.7746 17.3314 24.0256 17.0284C24.2813 16.7206 24.6127 16.465 25.0199 16.2614C25.4318 16.053 25.9432 15.9489 26.554 15.9489C27.3494 15.9489 28.0833 16.1572 28.7557 16.5739C29.428 16.9858 29.9654 17.6084 30.3679 18.4418C30.7704 19.2704 30.9716 20.3097 30.9716 21.5597C30.9716 22.7765 30.7751 23.804 30.3821 24.642C29.9938 25.4754 29.4635 26.1075 28.7912 26.5384C28.1236 26.9645 27.3755 27.1776 26.5469 27.1776C25.9598 27.1776 25.4602 27.0805 25.0483 26.8864C24.6411 26.6922 24.3073 26.4484 24.0469 26.1548C23.7865 25.8565 23.5876 25.5559 23.4503 25.2528H23.358V31.0909H20.3324ZM23.294 21.5455C23.294 22.1941 23.384 22.7599 23.5639 23.2429C23.7438 23.7259 24.0043 24.1023 24.3452 24.3722C24.6861 24.6373 25.1004 24.7699 25.5881 24.7699C26.0805 24.7699 26.4972 24.6349 26.8381 24.3651C27.179 24.0904 27.437 23.7116 27.6122 23.2287C27.7921 22.741 27.8821 22.1799 27.8821 21.5455C27.8821 20.9157 27.7945 20.3617 27.6193 19.8835C27.4441 19.4053 27.1861 19.0312 26.8452 18.7614C26.5043 18.4915 26.0852 18.3565 25.5881 18.3565C25.0956 18.3565 24.679 18.4867 24.3381 18.7472C24.0019 19.0076 23.7438 19.3769 23.5639 19.8551C23.384 20.3333 23.294 20.8968 23.294 21.5455Z"
      fill="white" />
</svg>
