<svg width="40" height="40" viewBox="0 0 40 40" fill="none" xmlns="http://www.w3.org/2000/svg">
   <path fill-rule="evenodd" clip-rule="evenodd"
      d="M16.6215 0.85942C18.7281 -0.286473 21.2719 -0.286474 23.3786 0.85942L35.5914 7.50256C37.8669 8.74033 39.2834 11.1233 39.2834 13.7137V26.2863C39.2834 28.8767 37.8669 31.2597 35.5914 32.4974L23.3786 39.1406C21.2719 40.2865 18.7281 40.2865 16.6215 39.1406L4.40866 32.4974C2.13314 31.2597 0.716629 28.8767 0.716629 26.2863L0.716629 13.7137C0.716629 11.1233 2.13313 8.74033 4.40866 7.50256L16.6215 0.85942Z"
      fill="#216C58" />
   <g clip-path="url(#clip0_115_61)">
      <path
         d="M20 4C28.8381 4 36 11.1619 36 20C36 28.8381 28.8381 36 20 36C11.1619 36 4 28.8381 4 20C4 11.1619 11.1619 4 20 4Z"
         fill="white" />
      <path
         d="M20 34.9333C28.2475 34.9333 34.9333 28.2475 34.9333 20C34.9333 11.7525 28.2475 5.06667 20 5.06667C11.7525 5.06667 5.06667 11.7525 5.06667 20C5.06667 28.2475 11.7525 34.9333 20 34.9333Z"
         fill="#216C58" stroke="#216C58" stroke-width="0.7" />
      <path
         d="M33.8667 20C33.8667 27.6952 27.6952 33.8667 20 33.8667C12.3048 33.8667 6.13333 27.6952 6.13333 20C6.13333 12.3048 12.3048 6.13333 20 6.13333C27.6952 6.13333 33.8667 12.3048 33.8667 20Z"
         fill="#216C58" />
      <path d="M19.6952 26.7048H18.0952V28.3048H19.6952V26.7048Z" fill="#216C58" />
      <path d="M22.3619 26.7048H20.7619V28.3048H22.3619V26.7048Z" fill="#216C58" />
      <path
         d="M15.4286 10.0952H25.5619C25.8667 10.0952 26.0952 10.4 26.0952 10.6286V10.9333C26.0952 11.2381 25.8667 11.4667 25.5619 11.4667H15.4286C15.1238 11.4667 14.8952 11.2381 14.8952 10.9333V10.6286C14.8952 10.4 15.2 10.0952 15.4286 10.0952Z"
         fill="white" />
      <path
         d="M20 12V30.1333C20 30.4381 19.7714 30.6667 19.4667 30.6667H19.1619C18.8571 30.6667 18.6286 30.4381 18.6286 30.1333V12H20Z"
         fill="white" />
      <path
         d="M22.1333 12V30.1333C22.1333 30.4381 21.9048 30.6667 21.6 30.6667H21.2952C20.9905 30.6667 20.7619 30.4381 20.7619 30.1333V12H22.1333Z"
         fill="white" />
      <path
         d="M18.8571 16.4952C19.2381 16.3429 19.6952 16.2667 20.3048 16.2667C21.1429 16.2667 21.7524 16.419 22.2095 16.7238C22.5143 16.9524 22.7429 17.181 22.8952 17.5619C23.0476 17.8667 23.2762 18.1714 23.7333 18.1714H26.1714C26.6286 18.1714 27.0095 17.7905 26.9333 17.3333C26.8571 16.5714 26.5524 15.9619 26.0952 15.3524C25.5619 14.5905 24.7238 14.0571 23.7333 13.6762C22.7429 13.2952 21.6 13.0667 20.3048 13.0667C19.0095 13.0667 17.8667 13.2952 16.8762 13.6762C15.8857 14.0571 15.0476 14.6667 14.4381 15.3524C13.8286 16.1143 13.5238 16.9524 13.5238 17.9429C13.5238 19.1619 13.981 20.1524 14.8952 20.8381C15.8095 21.5238 16.9524 22.0571 18.4 22.3619L20.3048 22.7429C20.9143 22.8952 21.4476 23.0476 21.8286 23.2C22.2095 23.3524 22.5143 23.5048 22.7429 23.7333C22.8952 23.8857 23.0476 24.1143 23.0476 24.419C23.0476 24.7238 22.9714 24.9524 22.7429 25.2571C22.5143 25.4857 22.2095 25.7143 21.7524 25.8667C21.3714 26.019 20.8381 26.0952 20.2286 26.0952C19.619 26.0952 19.0857 26.019 18.6286 25.8667C18.1714 25.7143 17.7905 25.4857 17.5619 25.181C17.4095 24.9524 17.2571 24.7238 17.181 24.4952C17.1048 24.1143 16.8 23.8095 16.3429 23.8095H13.9048C13.4476 23.8095 13.0667 24.1905 13.1429 24.6476C13.219 25.5619 13.5238 26.3238 14.0571 27.0095C14.6667 27.7714 15.5048 28.381 16.5714 28.7619C17.6381 29.1429 18.8571 29.3714 20.3048 29.3714C21.7524 29.3714 22.9714 29.219 23.9619 28.7619C25.0286 28.381 25.7905 27.8476 26.3238 27.0857C26.8571 26.3238 27.1619 25.4857 27.1619 24.4952C27.1619 23.8095 27.0095 23.2 26.7048 22.6667C26.4 22.1333 26.019 21.6762 25.5619 21.2952C25.1048 20.9143 24.4952 20.6095 23.8857 20.3048C23.2762 20.0762 22.5143 19.8476 21.7524 19.6952L20.2286 19.3905C19.8476 19.3143 19.5429 19.2381 19.2381 19.1619C18.9333 19.0857 18.6286 18.9333 18.4 18.781C18.1714 18.6286 18.019 18.4762 17.8667 18.3238C17.7905 18.1714 17.7143 18.019 17.7143 17.7905C17.7143 17.5619 17.7905 17.2571 17.9429 17.1048C18.2476 16.8 18.4762 16.6476 18.8571 16.4952Z"
         fill="white" stroke="#216C58" stroke-width="0.7" />
      <path d="M20 15.5048H18.6286V17.3333H20V15.5048Z" fill="white" />
      <path d="M20 22.1333H18.6286V24.0381H20V22.1333Z" fill="white" />
      <path d="M20 27.6952H18.6286V29.5238H20V27.6952Z" fill="white" />
      <path d="M22.2095 15.5048H20.8381V17.3333H22.2095V15.5048Z" fill="white" />
      <path d="M22.2095 22.1333H20.8381V24.0381H22.2095V22.1333Z" fill="white" />
      <path d="M22.2095 27.6952H20.8381V29.5238H22.2095V27.6952Z" fill="white" />
      <path fill-rule="evenodd" clip-rule="evenodd"
         d="M33.4095 20.7619C33.1809 20.7619 33.0286 20.9143 33.0286 21.1429C32.419 27.8476 26.8571 33.1048 20 33.1048C13.1429 33.1048 7.58095 27.8476 6.97143 21.1429C6.97143 20.9143 6.74286 20.7619 6.59048 20.7619C6.3619 20.7619 6.20952 20.9905 6.20952 21.219C6.81905 28.3048 12.7619 33.8667 20 33.8667C27.2381 33.8667 33.1809 28.3048 33.7905 21.219C33.8667 20.9905 33.6381 20.7619 33.4095 20.7619ZM6.59048 19.2381C6.81905 19.2381 6.97143 19.0857 6.97143 18.8571C7.58095 12.1524 13.1429 6.97143 20 6.97143C26.8571 6.97143 32.419 12.2286 33.0286 18.8571C33.0286 19.0857 33.2571 19.2381 33.4095 19.2381C33.6381 19.2381 33.7905 19.0095 33.7905 18.781C33.1809 11.6952 27.2381 6.13333 20 6.13333C12.7619 6.13333 6.81905 11.6952 6.20952 18.781C6.13333 19.0095 6.3619 19.2381 6.59048 19.2381Z"
         fill="white" />
   </g>
   <defs>
      <clipPath id="clip0_115_61">
         <rect width="32" height="32" fill="white" transform="translate(4 4)" />
      </clipPath>
   </defs>
</svg>
