<svg width="40" height="40" viewBox="0 0 40 40" fill="none" xmlns="http://www.w3.org/2000/svg">
   <path fill-rule="evenodd" clip-rule="evenodd"
      d="M16.6215 0.85942C18.7281 -0.286473 21.2719 -0.286474 23.3786 0.85942L35.5914 7.50256C37.8669 8.74033 39.2834 11.1233 39.2834 13.7137V26.2863C39.2834 28.8767 37.8669 31.2597 35.5914 32.4974L23.3786 39.1406C21.2719 40.2865 18.7281 40.2865 16.6215 39.1406L4.40866 32.4974C2.13314 31.2597 0.716629 28.8767 0.716629 26.2863L0.716629 13.7137C0.716629 11.1233 2.13313 8.74033 4.40866 7.50256L16.6215 0.85942Z"
      fill="black" />
   <g clip-path="url(#clip0_6_78)">
      <path
         d="M20 37C29.3888 37 37 29.3888 37 20C37 10.6112 29.3888 3 20 3C10.6112 3 3 10.6112 3 20C3 29.3888 10.6112 37 20 37Z"
         fill="black" />
      <path
         d="M27.5767 12.7834L25.0267 14.0839L12.7038 20.3601C12.5282 19.0113 12.7308 17.6403 13.289 16.4C13.8472 15.1597 14.7389 14.0988 15.8649 13.3358C16.9908 12.5727 18.3065 12.1374 19.6654 12.0786C21.0242 12.0197 22.3727 12.3395 23.5604 13.0023L25.0203 12.2585L25.2381 12.147C23.8532 11.1419 22.2095 10.5542 20.5013 10.4531C18.7931 10.3521 17.0917 10.742 15.5979 11.5767C14.1041 12.4115 12.8804 13.6563 12.0712 15.1641C11.2621 16.6719 10.9013 18.3797 11.0314 20.086C11.0558 20.4069 10.9847 20.7278 10.827 21.0084C10.6693 21.289 10.4321 21.5166 10.1453 21.6627L9.375 22.0558V23.8876L11.6424 22.7316L12.3766 22.3565L13.1001 21.9878L26.0903 15.3685L27.5501 14.6258L30.5676 13.0883V11.2576L27.5767 12.7834ZM30.5687 14.9211L13.8396 23.4381L12.3797 24.1819L9.37606 25.7151V27.5458L12.3596 26.0264L14.9106 24.7259L27.2462 18.4401C27.4245 19.791 27.2233 21.1647 26.6651 22.4077C26.107 23.6506 25.2139 24.7137 24.0859 25.4779C22.9579 26.2421 21.6394 26.6773 20.2781 26.7348C18.9168 26.7923 17.5663 26.4697 16.3779 25.8033L16.2876 25.8511L14.7045 26.6586C16.0897 27.6642 17.7337 28.2523 19.4424 28.3534C21.1512 28.4545 22.8531 28.0644 24.3472 27.2292C25.8413 26.394 27.0651 25.1486 27.8741 23.6401C28.683 22.1316 29.0432 20.4231 28.9122 18.7164C28.8882 18.3958 28.9593 18.0752 29.1168 17.7949C29.2742 17.5145 29.511 17.287 29.7973 17.1407L30.5687 16.7476V14.9222V14.9211Z"
         fill="white" />
   </g>
   <defs>
      <clipPath id="clip0_6_78">
         <rect width="34" height="34" fill="white" transform="translate(3 3)" />
      </clipPath>
   </defs>
</svg>
